
<svg xmlns="http://www.w3.org/2000/svg" width="24" height="24" viewBox="0 0 24 24" fill="none" stroke="#8B5CF6" stroke-width="2" stroke-linecap="round" stroke-linejoin="round" class="lucide lucide-lotus">
  <path d="M12 2a4 4 0 0 0-4 4c0 2.1 1.4 3.9 3.3 4.5C8.4 11.4 6 9.8 6 8c0-2.8 2.2-5 5-5 .6 0 1 .1 1.5.3"></path>
  <path d="M12 2a4 4 0 0 1 4 4c0 2.1-1.4 3.9-3.3 4.5 2.9.9 5.3-.7 5.3-2.5 0-2.8-2.2-5-5-5-.6 0-1 .1-1.5.3"></path>
  <path d="M4.3 10.5c-1.2.5-2.3 1.3-3.3 2.2 4.4 3.6 10 6.2 16 7.3"></path>
  <path d="M19.7 10.5c1.2.5 2.3 1.3 3.3 2.2-4.4 3.6-10 6.2-16 7.3"></path>
  <path d="M12 22V12"></path>
  <path d="M12 13c.6-1.3 1-2.3 1-3.5 0-.9-.2-1.8-.5-2.5"></path>
  <path d="M12 13c-.6-1.3-1-2.3-1-3.5 0-.9.2-1.8.5-2.5"></path>
</svg>
